<svg width="25" height="25" viewBox="0 0 25 25" fill="none" xmlns="http://www.w3.org/2000/svg">
<path fill-rule="evenodd" clip-rule="evenodd" d="M12.5 23C18.299 23 23 18.299 23 12.5C23 6.70101 18.299 2 12.5 2C6.70101 2 2 6.70101 2 12.5C2 18.299 6.70101 23 12.5 23ZM11.873 15.65H13.3711V9.35H11.5881V12.707L8.7481 9.35H7.25V15.65H9.03302V12.293L11.873 15.65ZM14.7978 13.5592H16.2345L17.75 11.4306L16.2345 9.35H14.8661L16.3815 11.4306L14.7978 13.5592ZM14.5953 14.75H17.5475V15.65H14.5953V14.75Z" fill="#143055"/>
</svg>
