<svg xmlns="http://www.w3.org/2000/svg" x="0px" y="0px" width="16" height="16" viewBox="-10 5 308.08 204.28">
    <defs>
        <style>.cls-1{fill:#48c4e5;}.cls-2{fill:#96d8e9;}</style>
    </defs>
    <title>Nrwl_ColorIcon</title>
    <g id="Layer_2" data-name="Layer 2">
        <g id="color_icon" data-name="color icon">
            <g id="whale">
                <g id="bdy">
                    <path id="bdy-2" data-name="bdy" class="cls-1"
                          d="M0,116.76A116.18,116.18,0,0,0,83.34,228.42a155.56,155.56,0,0,0,42.4,5.86,154.57,154.57,0,0,0,61.16-12.52c7.81-3.64,9.19-9.44,9.19-13.2s-3.38-6.25-4.63-7.92a4.85,4.85,0,0,1-1.12-2.38h0c-2.05-29.09-26.67-52-56.74-52h-3.66c-26.67,0-48.29-21.28-48.29-47.52a47,47,0,0,1,13.8-33.26,62.78,62.78,0,0,1,45.61-19.17c29.26,0,53.87,19.59,61,46.16a31.69,31.69,0,0,1-18.85,10.91,31.11,31.11,0,0,0-25.52,25.53c12.16,0,20.25,16.32,42.83,16.32a20.54,20.54,0,0,0,19-12.53,20.52,20.52,0,0,0,19,12.53c22.58,0,30.67-16.32,42.83-16.32a31.11,31.11,0,0,0-25.52-25.53c-9.72-1.58-19.56-8.67-22.88-17.89h0C219.07,36.17,173.15,0,118.65,0,53.12,0,0,52.28,0,116.76Zm122.27,84.37c.74-3,3.15-1.7,6.33-.93s5.92.73,5.19,3.69a5.79,5.79,0,0,1-7.09,4A5.69,5.69,0,0,1,122.27,201.13Z"/>
                    <path id="tusk" class="cls-1"
                          d="M188.3,214.18a6.15,6.15,0,0,1,6.2-6.1,5.12,5.12,0,0,1,.56,0h0c.4,0,.34.06,1.3.25L342.08,234,193.57,220.2h0A6.13,6.13,0,0,1,188.3,214.18Z"/>
                    <g id="right_fin" data-name="right fin">
                        <path class="cls-1"
                              d="M108.53,141.3a19.33,19.33,0,0,1,17.23-15v.1a17.11,17.11,0,0,0,6.6,13.49,17,17,0,0,1,6.08,6.5v6.19H108.53Z"/>
                    </g>
                </g>
                <g id="highlights">
                    <path class="cls-2"
                          d="M26.62,191A115.75,115.75,0,0,1,0,116.76C0,62.13,38.13,16.26,89.63,3.52,51.09,14.25,8,48.86,8,109.34,8,186,72.8,200.81,103,214.6c18.3,8.36,24.9,15.38,27.26,19.61-1.49,0-3,.07-4.47.07a155.56,155.56,0,0,1-42.4-5.86C69.19,224.2,53,214.89,41.77,206.16c1.59.23-8-5.28-17.36-17.94"/>
                    <ellipse class="cls-2" cx="50.76" cy="124.57" rx="4.03" ry="5.69"
                             transform="translate(-27.98 15.51) rotate(-13.66)"/>
                    <ellipse class="cls-2" cx="66.9" cy="147.51" rx="5.25" ry="7.49"
                             transform="translate(-80.11 79.53) rotate(-40.79)"/>
                    <ellipse class="cls-2" cx="65.1" cy="96.46" rx="5.68" ry="4.04"
                             transform="matrix(0.08, -1, 1, 0.08, -35.98, 154.12)"/>
                    <ellipse class="cls-2" cx="51.21" cy="103.84" rx="2.02" ry="2.84"
                             transform="translate(-4.54 2.37) rotate(-2.54)"/>
                    <path id="left_fin" data-name="left fin" class="cls-2"
                          d="M79,215a59.83,59.83,0,0,1-31.12,14.6c-1.67.25-3.36.43-5.08.55A61.94,61.94,0,0,1,33,230v0a71.29,71.29,0,0,0-11.8-.2A69.81,69.81,0,0,0,1.62,234h0a23.36,23.36,0,0,1-1.57-7,23.85,23.85,0,0,1,22.44-25.25A23.83,23.83,0,0,1,36,204.78h0a25.11,25.11,0,0,0,13.49,3,24.17,24.17,0,0,0,12-4.08s2.76-2.39,9.31,1.76C80.43,211.52,79,215,79,215Z"/>
                </g>
            </g>
        </g>
    </g>
</svg>
