<svg xmlns="http://www.w3.org/2000/svg" version="1.1" x="0px" y="0px" width="16" height="16" viewBox="2 2 20 20"
     style="enable-background:new 0 0 24 24;" xml:space="preserve" >

<rect class="st0" width="100%" height="100%" style="fill: none; --darkreader-inline-fill:none;"
      data-darkreader-inline-fill=""></rect>
    <path id="583245854_shock_x5F_color" class="stshockcolor"
          d="M22,14c0,0.55-0.45,1-1,1h-2v2h-4v2c0,0.55-0.45,1-1,1H5c-0.55,0-1-0.45-1-1V5  c0-0.55,0.45-1,1-1h9c0.55,0,1,0.45,1,1v2h4v2h2c0.55,0,1,0.45,1,1s-0.45,1-1,1h-2v2h2C21.55,13,22,13.45,22,14z"
          style="fill: rgb(2, 136, 209); --darkreader-inline-fill:#50c0fd;" data-darkreader-inline-fill=""
          data-st="fill: rgb(2, 136, 209); --darkreader-inline-fill:#50c0fd;"></path>
    <path class="st1"
          d="M15.41,12l-4.7,4.71l-1.42-1.42l2.3-2.29H4v-2h7.59l-2.3-2.29l1.42-1.42L15.41,12z M21,13h-2v2h2  c0.55,0,1-0.45,1-1S21.55,13,21,13z M21,11h-2V9h2c0.55,0,1,0.45,1,1S21.55,11,21,11z"
          style="opacity: 0.4; fill: rgb(255, 255, 255); --darkreader-inline-fill:#ffffff;"
          data-darkreader-inline-fill=""></path>
</svg>
