<svg xmlns="http://www.w3.org/2000/svg" xmlns:xlink="http://www.w3.org/1999/xlink" id="Layer_1" data-name="Layer 1" viewBox="8 11 55 48" width="24" height="21"><defs><style>.cls-1{fill:#fff;}</style></defs><title>V2</title><path class="cls-1" d="M52,48.86l-.12-.28L51.67,48l-.16-.37-.37-.88-.53-1.27L50,44h0L48.32,40l-.42-1-.28-.68-.06-.15-.42-1L44.91,31.9l-.7-1.68h0v0l0,.1-.36.81-.56,1.26-.36.81-.77,1.72-.26.59-1.7,3.77-.34.77-.59,1.3-.15.35-.28.62-.83,1.86-.29.64-1.32,2.95-.11.24-.56,1.27,3.1,0,.61-1.52,0-.06,1.08-2.7,7.08.08.57,1.53h0l.52,1.39.15.38h0l.31.83.06.15h.34l2.77,0ZM46.5,42.49l-4.87-.06.62-1.5h0l.86-2.06.58-1.41.37-.88,0-.1,0,0L45,38.59l.73,1.83.8,2.06Z"/><path class="cls-1" d="M62,40.26a2.9,2.9,0,0,0,0-.51,5.09,5.09,0,0,0,0-.55.25.25,0,0,0,0-.09c0-.24,0-.46-.07-.7a17.41,17.41,0,0,0-.37-1.91,6.45,6.45,0,0,0-.16-.63,4.84,4.84,0,0,0-.17-.54c-.08-.26-.17-.52-.26-.79s-.27-.68-.43-1-.37-.8-.57-1.2c-.13-.22-.24-.43-.38-.66-.26-.43-.54-.86-.84-1.28,0,0,0,0,0,0s-.17-.23-.26-.35-.24-.32-.37-.47L57.54,29a17.7,17.7,0,0,0-4.44-3.65,5.54,5.54,0,0,0-.53-.3A11.93,11.93,0,0,0,51,24.29,6.77,6.77,0,0,0,50.4,24L50,23.86a17.78,17.78,0,0,0-2.65-.7l-.09,0h-.08l-1.3-8.55a3.85,3.85,0,0,0-4.38-3.23L11.32,16A3.85,3.85,0,0,0,8.1,20.34l4.6,30.12a3.85,3.85,0,0,0,4.38,3.23l12.76-1.95c.14.19.3.38.46.57s.45.52.69.77c0,0,0,0,0,0,.13.15.25.27.39.41l.42.4h0c.27.25.55.49.84.73l.07,0a11.34,11.34,0,0,0,.9.69c.3.22.6.42.92.62l.06,0,.7.4c.2.12.41.22.62.33l.24.12a7.27,7.27,0,0,0,.69.32c.31.14.64.27,1,.39l.67.23c.28.1.55.17.85.25l.62.16.17,0,.6.11c.15,0,.31.06.47.1s.49.07.75.09.62.08.94.09.6,0,.91,0h0A17.93,17.93,0,0,0,62,41C62,40.73,62,40.5,62,40.26ZM28.73,31.48l0,.05a18.62,18.62,0,0,0-1.29,2.61l-6.83,1a1.34,1.34,0,1,0,.4,2.64L26.52,37l0,.11,0,.12c-.05.26-.1.52-.14.78a18.62,18.62,0,0,0-.23,2.61v0a1.85,1.85,0,0,0,0,.24l-4.58.7A1.34,1.34,0,0,0,22,44.22l4.38-.68a.43.43,0,0,0,0,.05,1.17,1.17,0,0,0,0,.27c0,.2.07.39.11.58a15.94,15.94,0,0,0,.6,2.18,15,15,0,0,0,1.17,2.66L16.68,51.06a1.19,1.19,0,0,1-1.35-1L11.26,23.38l32.46-4.95.68,4.44h-.16c-.23,0-.46,0-.69,0h-.39c-.58,0-1.15.09-1.72.17l-.7.12-.23,0a12.25,12.25,0,0,0-1.3.31,6.32,6.32,0,0,0-.62.18c-.26.08-.49.16-.74.26s-.41.14-.6.22-.53.23-.79.36a5.24,5.24,0,0,0-.48.23c-.17.07-.34.18-.52.27l-.16.09a18,18,0,0,0-2.42,1.63l-13.29,2A1.33,1.33,0,0,0,20,31.42l9.79-1.49c-.18.22-.34.45-.5.68A9.9,9.9,0,0,0,28.73,31.48ZM43.89,55.4a14.64,14.64,0,0,1-11.68-6.06,14.14,14.14,0,0,1-1.52-2.68,14.31,14.31,0,0,1-1.24-6A14.61,14.61,0,0,1,44.22,26.19a13.89,13.89,0,0,1,3,.36,14.25,14.25,0,0,1,2.66.86,14.61,14.61,0,0,1-6,28Z"/></svg>