<?xml version="1.0" encoding="UTF-8" standalone="no"?>
<svg width="1440px" height="708px" viewBox="0 0 1440 708" version="1.1" xmlns="http://www.w3.org/2000/svg" xmlns:xlink="http://www.w3.org/1999/xlink">
    <!-- Generator: Sketch 41.2 (35397) - http://www.bohemiancoding.com/sketch -->
    <title>bgArt_footerPattern</title>
    <desc>Created with Sketch.</desc>
    <defs>
        <rect id="path-1" x="0" y="0" width="1440" height="708"></rect>
    </defs>
    <g id="Full-Pages" stroke="none" stroke-width="1" fill="none" fill-rule="evenodd">
        <g id="HOME" transform="translate(0.000000, -5309.000000)">
            <g id="CTA/FTR" transform="translate(0.000000, 5309.000000)">
                <g id="bgArt_footerPattern">
                    <mask id="mask-2" fill="white">
                        <use xlink:href="#path-1"></use>
                    </mask>
                    <use id="BG" fill="#D4F0F7" xlink:href="#path-1"></use>
                    <g id="wavesPattern" mask="url(#mask-2)" opacity="0.0299999993">
                        <g transform="translate(-96.000000, -12.000000)" id="waves">
                            <g>
                                <path d="M84,29.5987975 C84,29.5987975 268,-10.4012025 343,2.59879755 C418,15.5987975 551,41.5987975 599,37.5987975 C647,33.5987975 857,9.59879755 935,9.59879755 C1013,9.59879755 1158,44.5987975 1221,44.5987975 C1284,44.5987975 1541,15.5987975 1598,15.5987975 C1598,15.5987975 1652,21.5987975 1598,25.5987975 C1544,29.5987975 1270,51.5987975 1222,51.5987975 C1174,51.5987975 1003,23.5987975 939,23.5987975 C875,23.5987975 702,44.5987975 599,44.5987975 C496,44.5987975 415,9.59879755 341,9.59879755 C267,9.59879755 116,37.5987975 85,37.5987975 C54,37.5987975 84,29.5987975 84,29.5987975 Z" id="Path-19" fill="#072057"></path>
                                <path d="M84,221.598798 C84,221.598798 268,181.598798 343,194.598798 C418,207.598798 551,233.598798 599,229.598798 C647,225.598798 857,201.598798 935,201.598798 C1013,201.598798 1158,236.598798 1221,236.598798 C1284,236.598798 1541,207.598798 1598,207.598798 C1598,207.598798 1652,213.598798 1598,217.598798 C1544,221.598798 1270,243.598798 1222,243.598798 C1174,243.598798 1003,215.598798 939,215.598798 C875,215.598798 702,236.598798 599,236.598798 C496,236.598798 415,201.598798 341,201.598798 C267,201.598798 116,229.598798 85,229.598798 C54,229.598798 84,221.598798 84,221.598798 Z" id="Path-19-Copy" fill="#072057"></path>
                                <path d="M40.2277553,67.5987975 C40.2277553,67.5987975 255.066567,27.5987975 342.636735,40.5987975 C430.206903,53.5987975 585.498001,79.5987975 641.542909,75.5987975 C697.587816,71.5987975 942.784287,47.5987975 1033.85726,47.5987975 C1124.93024,47.5987975 1294.23256,82.5987975 1367.7915,82.5987975 C1441.35044,82.5987975 1741.42422,53.5987975 1807.97755,53.5987975 C1807.97755,53.5987975 1871.02807,59.5987975 1807.97755,63.5987975 C1744.92703,67.5987975 1425.00401,89.5987975 1368.9591,89.5987975 C1312.9142,89.5987975 1113.25421,61.5987975 1038.52767,61.5987975 C963.801127,61.5987975 761.805939,82.5987975 641.542909,82.5987975 C521.279878,82.5987975 426.704097,47.5987975 340.301531,47.5987975 C253.898965,47.5987975 77.591027,75.5987975 41.3953576,75.5987975 C5.19968814,75.5987975 40.2277553,67.5987975 40.2277553,67.5987975 Z" id="Path-19" fill="#072057" transform="translate(930.500000, 63.799399) scale(-1, 1) translate(-930.500000, -63.799399) "></path>
                                <path d="M40.2277553,259.598798 C40.2277553,259.598798 255.066567,219.598798 342.636735,232.598798 C430.206903,245.598798 585.498001,271.598798 641.542909,267.598798 C697.587816,263.598798 942.784287,239.598798 1033.85726,239.598798 C1124.93024,239.598798 1294.23256,274.598798 1367.7915,274.598798 C1441.35044,274.598798 1741.42422,245.598798 1807.97755,245.598798 C1807.97755,245.598798 1871.02807,251.598798 1807.97755,255.598798 C1744.92703,259.598798 1425.00401,281.598798 1368.9591,281.598798 C1312.9142,281.598798 1113.25421,253.598798 1038.52767,253.598798 C963.801127,253.598798 761.805939,274.598798 641.542909,274.598798 C521.279878,274.598798 426.704097,239.598798 340.301531,239.598798 C253.898965,239.598798 77.591027,267.598798 41.3953576,267.598798 C5.19968814,267.598798 40.2277553,259.598798 40.2277553,259.598798 Z" id="Path-19-Copy-2" fill="#072057" transform="translate(930.500000, 255.799399) scale(-1, 1) translate(-930.500000, -255.799399) "></path>
                                <path d="M15.0855304,124.236841 C15.0855304,124.236841 227.91778,77.9689602 314.670056,93.0060214 C401.422331,108.043082 555.263034,138.117205 610.78449,133.490417 C666.305946,128.863629 909.212318,101.1029 999.434685,101.1029 C1089.65705,101.1029 1257.37812,141.587296 1330.25003,141.587296 C1403.12194,141.587296 1700.39307,108.043082 1766.3248,108.043082 C1766.3248,108.043082 1828.78644,114.983265 1766.3248,119.610053 C1703.86316,124.236841 1386.92818,149.684175 1331.40673,149.684175 C1275.88527,149.684175 1078.09008,117.296659 1004.06147,117.296659 C930.032865,117.296659 729.924282,141.587296 610.78449,141.587296 C491.644698,141.587296 397.95224,101.1029 312.356662,101.1029 C226.761083,101.1029 52.0998347,133.490417 16.2422274,133.490417 C-19.6153799,133.490417 15.0855304,124.236841 15.0855304,124.236841 Z" id="Path-19" fill="#072057"></path>
                                <path d="M15.0855304,316.236841 C15.0855304,316.236841 227.91778,269.96896 314.670056,285.006021 C401.422331,300.043082 555.263034,330.117205 610.78449,325.490417 C666.305946,320.863629 909.212318,293.1029 999.434685,293.1029 C1089.65705,293.1029 1257.37812,333.587296 1330.25003,333.587296 C1403.12194,333.587296 1700.39307,300.043082 1766.3248,300.043082 C1766.3248,300.043082 1828.78644,306.983265 1766.3248,311.610053 C1703.86316,316.236841 1386.92818,341.684175 1331.40673,341.684175 C1275.88527,341.684175 1078.09008,309.296659 1004.06147,309.296659 C930.032865,309.296659 729.924282,333.587296 610.78449,333.587296 C491.644698,333.587296 397.95224,293.1029 312.356662,293.1029 C226.761083,293.1029 52.0998347,325.490417 16.2422274,325.490417 C-19.6153799,325.490417 15.0855304,316.236841 15.0855304,316.236841 Z" id="Path-19-Copy-3" fill="#072057"></path>
                                <path d="M56.5622675,174.976208 C56.5622675,174.976208 233.79539,133.114767 306.037152,146.719735 C378.278914,160.324703 506.387639,187.53464 552.622366,183.348496 C598.857094,179.162352 801.134028,154.045487 876.26546,154.045487 C951.396893,154.045487 1091.0643,190.674248 1151.74738,190.674248 C1212.43046,190.674248 1459.9789,160.324703 1514.88264,160.324703 C1514.88264,160.324703 1566.8967,166.60392 1514.88264,170.790064 C1462.86857,174.976208 1198.94533,198 1152.7106,198 C1106.47588,198 941.764658,168.696992 880.118354,168.696992 C818.472051,168.696992 651.834386,190.674248 552.622366,190.674248 C453.410347,190.674248 375.389244,154.045487 304.110705,154.045487 C232.832167,154.045487 87.3854193,183.348496 57.525491,183.348496 C27.6655627,183.348496 56.5622675,174.976208 56.5622675,174.976208 Z" id="Path-19" fill="#072057" transform="translate(791.000000, 171.000000) scale(-1, -1) translate(-791.000000, -171.000000) "></path>
                                <path d="M56.5622675,366.976208 C56.5622675,366.976208 233.79539,325.114767 306.037152,338.719735 C378.278914,352.324703 506.387639,379.53464 552.622366,375.348496 C598.857094,371.162352 801.134028,346.045487 876.26546,346.045487 C951.396893,346.045487 1091.0643,382.674248 1151.74738,382.674248 C1212.43046,382.674248 1459.9789,352.324703 1514.88264,352.324703 C1514.88264,352.324703 1566.8967,358.60392 1514.88264,362.790064 C1462.86857,366.976208 1198.94533,390 1152.7106,390 C1106.47588,390 941.764658,360.696992 880.118354,360.696992 C818.472051,360.696992 651.834386,382.674248 552.622366,382.674248 C453.410347,382.674248 375.389244,346.045487 304.110705,346.045487 C232.832167,346.045487 87.3854193,375.348496 57.525491,375.348496 C27.6655627,375.348496 56.5622675,366.976208 56.5622675,366.976208 Z" id="Path-19-Copy-4" fill="#072057" transform="translate(791.000000, 363.000000) scale(-1, -1) translate(-791.000000, -363.000000) "></path>
                            </g>
                        </g>
                    </g>
                    <g id="wavesPattern" mask="url(#mask-2)" opacity="0.0299999993">
                        <g transform="translate(-96.000000, 368.000000)" id="waves">
                            <g>
                                <path d="M84,29.5987975 C84,29.5987975 268,-10.4012025 343,2.59879755 C418,15.5987975 551,41.5987975 599,37.5987975 C647,33.5987975 857,9.59879755 935,9.59879755 C1013,9.59879755 1158,44.5987975 1221,44.5987975 C1284,44.5987975 1541,15.5987975 1598,15.5987975 C1598,15.5987975 1652,21.5987975 1598,25.5987975 C1544,29.5987975 1270,51.5987975 1222,51.5987975 C1174,51.5987975 1003,23.5987975 939,23.5987975 C875,23.5987975 702,44.5987975 599,44.5987975 C496,44.5987975 415,9.59879755 341,9.59879755 C267,9.59879755 116,37.5987975 85,37.5987975 C54,37.5987975 84,29.5987975 84,29.5987975 Z" id="Path-19" fill="#072057"></path>
                                <path d="M84,221.598798 C84,221.598798 268,181.598798 343,194.598798 C418,207.598798 551,233.598798 599,229.598798 C647,225.598798 857,201.598798 935,201.598798 C1013,201.598798 1158,236.598798 1221,236.598798 C1284,236.598798 1541,207.598798 1598,207.598798 C1598,207.598798 1652,213.598798 1598,217.598798 C1544,221.598798 1270,243.598798 1222,243.598798 C1174,243.598798 1003,215.598798 939,215.598798 C875,215.598798 702,236.598798 599,236.598798 C496,236.598798 415,201.598798 341,201.598798 C267,201.598798 116,229.598798 85,229.598798 C54,229.598798 84,221.598798 84,221.598798 Z" id="Path-19-Copy" fill="#072057"></path>
                                <path d="M40.2277553,67.5987975 C40.2277553,67.5987975 255.066567,27.5987975 342.636735,40.5987975 C430.206903,53.5987975 585.498001,79.5987975 641.542909,75.5987975 C697.587816,71.5987975 942.784287,47.5987975 1033.85726,47.5987975 C1124.93024,47.5987975 1294.23256,82.5987975 1367.7915,82.5987975 C1441.35044,82.5987975 1741.42422,53.5987975 1807.97755,53.5987975 C1807.97755,53.5987975 1871.02807,59.5987975 1807.97755,63.5987975 C1744.92703,67.5987975 1425.00401,89.5987975 1368.9591,89.5987975 C1312.9142,89.5987975 1113.25421,61.5987975 1038.52767,61.5987975 C963.801127,61.5987975 761.805939,82.5987975 641.542909,82.5987975 C521.279878,82.5987975 426.704097,47.5987975 340.301531,47.5987975 C253.898965,47.5987975 77.591027,75.5987975 41.3953576,75.5987975 C5.19968814,75.5987975 40.2277553,67.5987975 40.2277553,67.5987975 Z" id="Path-19" fill="#072057" transform="translate(930.500000, 63.799399) scale(-1, 1) translate(-930.500000, -63.799399) "></path>
                                <path d="M40.2277553,259.598798 C40.2277553,259.598798 255.066567,219.598798 342.636735,232.598798 C430.206903,245.598798 585.498001,271.598798 641.542909,267.598798 C697.587816,263.598798 942.784287,239.598798 1033.85726,239.598798 C1124.93024,239.598798 1294.23256,274.598798 1367.7915,274.598798 C1441.35044,274.598798 1741.42422,245.598798 1807.97755,245.598798 C1807.97755,245.598798 1871.02807,251.598798 1807.97755,255.598798 C1744.92703,259.598798 1425.00401,281.598798 1368.9591,281.598798 C1312.9142,281.598798 1113.25421,253.598798 1038.52767,253.598798 C963.801127,253.598798 761.805939,274.598798 641.542909,274.598798 C521.279878,274.598798 426.704097,239.598798 340.301531,239.598798 C253.898965,239.598798 77.591027,267.598798 41.3953576,267.598798 C5.19968814,267.598798 40.2277553,259.598798 40.2277553,259.598798 Z" id="Path-19-Copy-2" fill="#072057" transform="translate(930.500000, 255.799399) scale(-1, 1) translate(-930.500000, -255.799399) "></path>
                                <path d="M15.0855304,124.236841 C15.0855304,124.236841 227.91778,77.9689602 314.670056,93.0060214 C401.422331,108.043082 555.263034,138.117205 610.78449,133.490417 C666.305946,128.863629 909.212318,101.1029 999.434685,101.1029 C1089.65705,101.1029 1257.37812,141.587296 1330.25003,141.587296 C1403.12194,141.587296 1700.39307,108.043082 1766.3248,108.043082 C1766.3248,108.043082 1828.78644,114.983265 1766.3248,119.610053 C1703.86316,124.236841 1386.92818,149.684175 1331.40673,149.684175 C1275.88527,149.684175 1078.09008,117.296659 1004.06147,117.296659 C930.032865,117.296659 729.924282,141.587296 610.78449,141.587296 C491.644698,141.587296 397.95224,101.1029 312.356662,101.1029 C226.761083,101.1029 52.0998347,133.490417 16.2422274,133.490417 C-19.6153799,133.490417 15.0855304,124.236841 15.0855304,124.236841 Z" id="Path-19" fill="#072057"></path>
                                <path d="M15.0855304,316.236841 C15.0855304,316.236841 227.91778,269.96896 314.670056,285.006021 C401.422331,300.043082 555.263034,330.117205 610.78449,325.490417 C666.305946,320.863629 909.212318,293.1029 999.434685,293.1029 C1089.65705,293.1029 1257.37812,333.587296 1330.25003,333.587296 C1403.12194,333.587296 1700.39307,300.043082 1766.3248,300.043082 C1766.3248,300.043082 1828.78644,306.983265 1766.3248,311.610053 C1703.86316,316.236841 1386.92818,341.684175 1331.40673,341.684175 C1275.88527,341.684175 1078.09008,309.296659 1004.06147,309.296659 C930.032865,309.296659 729.924282,333.587296 610.78449,333.587296 C491.644698,333.587296 397.95224,293.1029 312.356662,293.1029 C226.761083,293.1029 52.0998347,325.490417 16.2422274,325.490417 C-19.6153799,325.490417 15.0855304,316.236841 15.0855304,316.236841 Z" id="Path-19-Copy-3" fill="#072057"></path>
                                <path d="M56.5622675,174.976208 C56.5622675,174.976208 233.79539,133.114767 306.037152,146.719735 C378.278914,160.324703 506.387639,187.53464 552.622366,183.348496 C598.857094,179.162352 801.134028,154.045487 876.26546,154.045487 C951.396893,154.045487 1091.0643,190.674248 1151.74738,190.674248 C1212.43046,190.674248 1459.9789,160.324703 1514.88264,160.324703 C1514.88264,160.324703 1566.8967,166.60392 1514.88264,170.790064 C1462.86857,174.976208 1198.94533,198 1152.7106,198 C1106.47588,198 941.764658,168.696992 880.118354,168.696992 C818.472051,168.696992 651.834386,190.674248 552.622366,190.674248 C453.410347,190.674248 375.389244,154.045487 304.110705,154.045487 C232.832167,154.045487 87.3854193,183.348496 57.525491,183.348496 C27.6655627,183.348496 56.5622675,174.976208 56.5622675,174.976208 Z" id="Path-19" fill="#072057" transform="translate(791.000000, 171.000000) scale(-1, -1) translate(-791.000000, -171.000000) "></path>
                                <path d="M56.5622675,366.976208 C56.5622675,366.976208 233.79539,325.114767 306.037152,338.719735 C378.278914,352.324703 506.387639,379.53464 552.622366,375.348496 C598.857094,371.162352 801.134028,346.045487 876.26546,346.045487 C951.396893,346.045487 1091.0643,382.674248 1151.74738,382.674248 C1212.43046,382.674248 1459.9789,352.324703 1514.88264,352.324703 C1514.88264,352.324703 1566.8967,358.60392 1514.88264,362.790064 C1462.86857,366.976208 1198.94533,390 1152.7106,390 C1106.47588,390 941.764658,360.696992 880.118354,360.696992 C818.472051,360.696992 651.834386,382.674248 552.622366,382.674248 C453.410347,382.674248 375.389244,346.045487 304.110705,346.045487 C232.832167,346.045487 87.3854193,375.348496 57.525491,375.348496 C27.6655627,375.348496 56.5622675,366.976208 56.5622675,366.976208 Z" id="Path-19-Copy-4" fill="#072057" transform="translate(791.000000, 363.000000) scale(-1, -1) translate(-791.000000, -363.000000) "></path>
                            </g>
                        </g>
                    </g>
                </g>
            </g>
        </g>
    </g>
</svg>