<svg xmlns="http://www.w3.org/2000/svg" version="1.1" x="0px" y="0px" width="16" height="16" viewBox="0 0 24 24"
     style="enable-background:new 0 0 24 24;" xml:space="preserve" >

<path id="581045055_shock_x5F_color" class="stshockcolor"
      d="M23,4v12c0,0,0,2-2,2h-7l2,3v1H8v-1l2-3H3c0,0-2,0-2-2V4c0,0,0-2,2-2h18C23,2,23,4,23,4z"
      style="fill: rgb(84, 110, 122); --darkreader-inline-fill:#abbdc6;" data-darkreader-inline-fill=""
      data-st="fill: rgb(84, 110, 122); --darkreader-inline-fill:#abbdc6;"></path>
    <path class="st0" d="M23,4v12H1V4c0,0,0-2,2-2h18C23,2,23,4,23,4z"
          style="opacity: 0.6; fill: rgb(255, 255, 255); --darkreader-inline-fill:#ffffff;"
          data-darkreader-inline-fill=""></path>
    <rect x="3" y="4" class="st4" width="18" height="10"
          style="fill: rgb(92, 107, 192); --darkreader-inline-fill:#80a1ce;" data-darkreader-inline-fill=""></rect>
    <path class="st1" d="M23,16c0,0,0,2-2,2H3c0,0-2,0-2-2H23z"
          style="opacity: 0.3; fill: rgb(255, 255, 255); --darkreader-inline-fill:#ffffff;"
          data-darkreader-inline-fill=""></path>
    <path class="st3"
          d="M15.707,12.707l-1.414-1.414L16.586,9l-2.293-2.293l1.414-1.414L19.414,9L15.707,12.707z M9.707,11.293L7.414,9  l2.293-2.293L8.293,5.293L4.586,9l3.707,3.707L9.707,11.293z"
          style="opacity: 0.8; fill: rgb(255, 255, 255); --darkreader-inline-fill:#ffffff;"
          data-darkreader-inline-fill=""></path>
</svg>