<svg xmlns="http://www.w3.org/2000/svg" version="1.1" x="0px" y="0px" width="16" height="16" viewBox="0 0 24 24"
     style="enable-background:new 0 0 16 16;" xml:space="preserve" >

<rect class="st1" width="100%" height="100%" style="fill: none; --darkreader-inline-fill:none;"
      data-darkreader-inline-fill=""></rect>
    <path id="58129019_shock_x5F_color_grid" class="stshockcolor"
          d="M19.43,12.98c0.04-0.32,0.07-0.64,0.07-0.98s-0.03-0.66-0.07-0.98l2.11-1.65  c0.19-0.15,0.24-0.42,0.12-0.64l-2-3.46c-0.12-0.22-0.391-0.3-0.61-0.22l-2.49,1c-0.52-0.4-1.079-0.73-1.689-0.98l-0.38-2.65  C14.46,2.18,14.25,2,14,2h-4C9.75,2,9.54,2.18,9.51,2.42L9.13,5.07C8.52,5.32,7.96,5.66,7.44,6.05l-2.49-1  c-0.23-0.09-0.49,0-0.61,0.22l-2,3.46C2.21,8.95,2.27,9.22,2.46,9.37l2.11,1.65C4.53,11.34,4.5,11.67,4.5,12s0.03,0.66,0.07,0.98  l-2.11,1.65c-0.19,0.15-0.24,0.42-0.12,0.64l2,3.461c0.12,0.22,0.39,0.3,0.61,0.22l2.49-1c0.52,0.399,1.08,0.729,1.69,0.979  l0.38,2.65C9.54,21.82,9.75,22,10,22h4c0.25,0,0.46-0.18,0.49-0.42l0.38-2.65c0.61-0.25,1.17-0.59,1.689-0.979l2.49,1  c0.23,0.09,0.49,0,0.61-0.22l2-3.461c0.12-0.22,0.07-0.489-0.12-0.64L19.43,12.98z M12,15c-1.66,0-3-1.34-3-3s1.34-3,3-3s3,1.34,3,3  S13.66,15,12,15z"
          style="fill: rgb(120, 144, 156); --darkreader-inline-fill:#a2b3bb;" data-darkreader-inline-fill=""
          data-st="fill: rgb(120, 144, 156); --darkreader-inline-fill:#a2b3bb;"></path>
    <path class="st0"
          d="M7,12c0,2.76,2.24,5,5,5v5h-2c-0.25,0-0.46-0.18-0.49-0.42l-0.38-2.65c-0.61-0.25-1.17-0.58-1.69-0.979l-2.49,1  c-0.22,0.08-0.49,0-0.61-0.22l-2-3.461c-0.12-0.22-0.07-0.489,0.12-0.64l2.11-1.65C4.53,12.66,4.5,12.33,4.5,12s0.03-0.66,0.07-0.98  L2.46,9.37C2.27,9.22,2.21,8.95,2.34,8.73l2-3.46c0.12-0.22,0.38-0.31,0.61-0.22l2.49,1c0.52-0.39,1.08-0.73,1.69-0.98l0.38-2.65  C9.54,2.18,9.75,2,10,2h2v5C9.24,7,7,9.24,7,12z M12,7v2c1.65,0,3,1.35,3,3c0,1.65-1.35,3-3,3v2c2.76,0,5-2.24,5-5S14.76,7,12,7z"
          style="opacity: 0.2; fill: rgb(255, 255, 255); --darkreader-inline-fill:#ffffff;"
          data-darkreader-inline-fill=""></path>
</svg>