<svg width="536" height="97" fill="none" xmlns="http://www.w3.org/2000/svg"><path fill="#fff" d="M0 0h536v97H0z"/><path fill-rule="evenodd" clip-rule="evenodd" d="M40.92 30H30v36.6h13.595V53.88L54.134 66.6h10.92V30H51.46v12.721L40.921 30Zm52.805 0h-15.86L90.63 48.104 77.307 66.6h16.434l12.75-18.497L93.725 30ZM32.85 63.75v-30.9h6.73l14.73 17.78V32.85h7.894v30.9h-6.73l-14.73-17.78v17.78H32.85Zm61.281-15.629-10.769-15.27h8.885l10.769 15.27-10.772 15.63h-9.37L94.13 48.12ZM142 56.27h-27.508V66.6H142V56.27Zm-24.657 7.481V59.12h21.807v4.631h-21.807Z" fill="#143055"/><path d="M186.568 67.249c-3.625 0-6.904-.794-9.839-2.382-2.9-1.623-5.178-3.833-6.835-6.629-1.657-2.83-2.486-6.007-2.486-9.528 0-3.522.829-6.68 2.486-9.477 1.657-2.83 3.953-5.04 6.887-6.628 2.934-1.623 6.214-2.434 9.839-2.434 2.831 0 5.42.483 7.768 1.45 2.347.932 4.35 2.33 6.007 4.194l-3.366 3.263c-2.728-2.866-6.128-4.298-10.202-4.298-2.693 0-5.126.604-7.301 1.812a13.276 13.276 0 0 0-5.127 5.023c-1.208 2.106-1.813 4.47-1.813 7.095 0 2.623.605 5.006 1.813 7.146 1.243 2.106 2.952 3.763 5.127 4.971 2.175 1.209 4.608 1.813 7.301 1.813 4.039 0 7.44-1.45 10.202-4.35l3.366 3.262c-1.657 1.865-3.677 3.28-6.059 4.247-2.348.966-4.937 1.45-7.768 1.45ZM236.852 67.249c-3.66 0-6.957-.794-9.891-2.382-2.935-1.623-5.248-3.85-6.939-6.68-1.657-2.832-2.486-5.99-2.486-9.477s.829-6.646 2.486-9.477c1.691-2.83 4.004-5.04 6.939-6.628 2.934-1.623 6.231-2.434 9.891-2.434 3.625 0 6.904.811 9.839 2.434 2.934 1.588 5.23 3.797 6.887 6.628 1.657 2.797 2.486 5.955 2.486 9.477 0 3.521-.829 6.697-2.486 9.528-1.657 2.797-3.953 5.006-6.887 6.629-2.935 1.588-6.214 2.382-9.839 2.382Zm0-4.61c2.658 0 5.04-.603 7.146-1.812 2.14-1.208 3.815-2.865 5.023-4.971 1.243-2.14 1.864-4.523 1.864-7.146 0-2.624-.621-4.989-1.864-7.095a13.008 13.008 0 0 0-5.023-5.023c-2.106-1.208-4.488-1.812-7.146-1.812-2.659 0-5.075.604-7.25 1.812a13.375 13.375 0 0 0-5.075 5.023c-1.208 2.106-1.813 4.47-1.813 7.095 0 2.623.605 5.006 1.813 7.146a13.489 13.489 0 0 0 5.075 4.971c2.175 1.209 4.591 1.813 7.25 1.813ZM308.617 30.585v36.25h-4.246l-21.75-27.032v27.031h-5.178V30.585h4.246l21.75 27.032V30.585h5.178ZM343.495 67.249c-2.727 0-5.368-.415-7.923-1.243-2.52-.863-4.505-1.968-5.955-3.314l1.916-4.04c1.381 1.243 3.142 2.262 5.282 3.056 2.175.76 4.402 1.139 6.68 1.139 3.004 0 5.248-.5 6.732-1.502 1.485-1.035 2.227-2.4 2.227-4.09 0-1.244-.414-2.245-1.243-3.004-.794-.794-1.795-1.398-3.003-1.813-1.174-.414-2.848-.88-5.023-1.398-2.728-.656-4.937-1.312-6.629-1.968a11.287 11.287 0 0 1-4.298-3.003c-1.174-1.381-1.761-3.228-1.761-5.541 0-1.934.501-3.677 1.502-5.23 1.036-1.554 2.589-2.797 4.661-3.729 2.071-.932 4.643-1.398 7.716-1.398 2.14 0 4.246.276 6.317.828 2.072.553 3.85 1.347 5.334 2.382l-1.709 4.143a18.121 18.121 0 0 0-4.867-2.175c-1.727-.518-3.418-.776-5.075-.776-2.935 0-5.144.535-6.629 1.605-1.45 1.07-2.175 2.45-2.175 4.143 0 1.242.415 2.26 1.243 3.055.829.76 1.847 1.364 3.055 1.812 1.243.415 2.918.863 5.024 1.347 2.727.656 4.919 1.312 6.576 1.968a10.862 10.862 0 0 1 4.247 3.003c1.208 1.346 1.812 3.159 1.812 5.438a9.385 9.385 0 0 1-1.553 5.23c-1.036 1.553-2.607 2.796-4.713 3.728-2.106.898-4.695 1.347-7.768 1.347ZM394.922 67.249c-3.659 0-6.956-.794-9.89-2.382-2.935-1.623-5.248-3.85-6.94-6.68-1.657-2.832-2.485-5.99-2.485-9.477s.828-6.646 2.485-9.477c1.692-2.83 4.005-5.04 6.94-6.628 2.934-1.623 6.231-2.434 9.89-2.434 3.625 0 6.905.811 9.84 2.434 2.934 1.588 5.23 3.797 6.887 6.628 1.657 2.797 2.486 5.955 2.486 9.477 0 3.521-.829 6.697-2.486 9.528-1.657 2.797-3.953 5.006-6.887 6.629-2.935 1.588-6.215 2.382-9.84 2.382Zm0-4.61c2.659 0 5.041-.603 7.147-1.812 2.14-1.208 3.815-2.865 5.023-4.971 1.243-2.14 1.864-4.523 1.864-7.146 0-2.624-.621-4.989-1.864-7.095a13.008 13.008 0 0 0-5.023-5.023c-2.106-1.208-4.488-1.812-7.147-1.812-2.658 0-5.074.604-7.249 1.812a13.375 13.375 0 0 0-5.075 5.023c-1.209 2.106-1.813 4.47-1.813 7.095 0 2.623.604 5.006 1.813 7.146a13.489 13.489 0 0 0 5.075 4.971c2.175 1.209 4.591 1.813 7.249 1.813ZM435.514 30.585h5.178V62.33h19.626v4.505h-24.804V30.585ZM506.031 62.33v4.504h-26.306V30.585h25.581v4.505h-20.403v11.134h18.177v4.402h-18.177v11.703h21.128Z" fill="#143055"/></svg>