<svg xmlns="http://www.w3.org/2000/svg" xml:space="preserve"
     stroke-miterlimit="10" style="fill-rule:nonzero;clip-rule:evenodd;stroke-linecap:round;stroke-linejoin:round"
     viewBox="0 0 36 36">
  <path fill="#fff"
        d="M1.69 12.53c-.02 0-.06.01-.06.03-.02 3.75-.02 7.5 0 11.25 0 .02.04.06.06.07h3.97c.02 0 .03-.05.03-.07.01-1.36-.02-2.73 0-4.1 0-.01.04 0 .06-.02.95.95 1.77 2.08 2.63 3.12l.84 1.07c1.08.02 2.17.01 3.25 0 .02 0 .03-.05.03-.07.02-3.75.02-7.5 0-11.25 0-.02 0-.03-.03-.03H8.5c-.02 0-.06.01-.06.03-.02 1.37.01 2.73 0 4.1 0 .02-.02.01-.03.03-.97-.97-1.78-2.12-2.66-3.16-.09-.1-.82-1-.84-1-1.07-.06-2.15-.01-3.22 0Zm.62.6c.77-.02 1.54-.06 2.31 0 .03 0 .22.26.25.3l.82.98c1.08 1.32 2.1 2.79 3.31 4 .02-.02.06-.04.06-.07.02-1.72-.01-3.43 0-5.15 0-.02.01-.06.03-.06.92-.02 1.84-.02 2.75 0 .03 0 .07.04.07.06.01 3.35.01 6.68 0 10.03 0 .02-.04.06-.07.06-.77.02-1.54.04-2.3 0-.11 0-.13-.17-.2-.25-.3-.37-.63-.72-.93-1.1-1.07-1.3-2.1-2.77-3.29-3.96l-.03.06c-.01 1.74.02 3.45 0 5.19 0 .02-.04.06-.06.06-.91.02-1.8.02-2.72 0-.02 0-.06-.04-.06-.06-.02-3.35-.02-6.68 0-10.03 0-.02.04-.06.06-.06Zm13.29-.6c-.03 0-.02.02-.04.03.25.5.7.95 1 1.4.6.9 1.23 1.77 1.85 2.63l.84 1.2c.06.08.23.23.25.34.02.09-.26.32-.31.4l-.75 1.03-2.16 3.03c-.28.4-.66.79-.87 1.22.01.02 0 .06.03.07h4.81c.07 0 .2-.32.25-.38l.75-1.06c.65-.9 1.23-1.82 1.88-2.72.34-.49.79-1.03 1.06-1.56a9.1 9.1 0 0 0-.69-1c-.75-1.05-1.47-2.12-2.22-3.16-.26-.37-.53-.72-.78-1.1-.04-.05-.22-.37-.28-.37-1.54-.04-3.09-.01-4.63 0Zm1.18.6c1.04-.02 2.09-.04 3.13 0a39.79 39.79 0 0 1 .94 1.31c.61.93 1.28 1.84 1.93 2.75l.69.97c-.05.25-.61.88-.78 1.12-.66.93-1.3 1.87-1.94 2.81-.08.13-.8 1.2-.84 1.2h-3.29c-.02 0-.01-.05-.03-.07.94-1.25 1.81-2.54 2.72-3.81.1-.15.92-1.24.9-1.29-.1-.41-.63-.89-.87-1.25-.59-.88-1.22-1.75-1.84-2.62-.24-.34-.57-.7-.75-1.06.02-.02 0-.06.03-.06Zm9.44 7.71c-.02 0-.03.01-.03.04-.02.97-.02 1.96 0 2.93 0 .02 0 .06.03.07h8.37c.03 0 .07-.05.07-.07v-2.93c0-.03-.04-.04-.07-.04a744.6 744.6 0 0 0-8.37 0Zm.62.63c2.38-.02 4.75-.02 7.13 0 .02 0 .06 0 .06.03.02.58.02 1.14 0 1.72 0 .02-.04.06-.06.06-2.38.02-4.75.02-7.13 0-.02 0-.06-.04-.06-.06V21.5c0-.02.04-.03.06-.03Z"/>
</svg>